<svg width="88" height="88" fill="none" xmlns="http://www.w3.org/2000/svg"><g filter="url(#a)"><path d="M60.719 34c0 .938-.365 1.719-1.094 2.344-.625.625-1.406.937-2.344.937H24L10.719 50.72V4c0-.938.312-1.719.937-2.344C12.281 1.031 13.062.72 14 .72h43.281c.938 0 1.719.312 2.344.937.73.625 1.094 1.407 1.094 2.344v30zM74 14c.938 0 1.719.313 2.344.938.625.624.937 1.406.937 2.343v50L64 54H27.281c-.937 0-1.718-.313-2.343-.938-.625-.624-.938-1.406-.938-2.343V44h43.281V14H74z" fill="#fff"/></g><defs><filter id="a" x=".719" y=".719" width="86.563" height="86.563" filterUnits="userSpaceOnUse" color-interpolation-filters="sRGB"><feFlood flood-opacity="0" result="BackgroundImageFix"/><feColorMatrix in="SourceAlpha" values="0 0 0 0 0 0 0 0 0 0 0 0 0 0 0 0 0 0 127 0" result="hardAlpha"/><feOffset dy="10"/><feGaussianBlur stdDeviation="5"/><feColorMatrix values="0 0 0 0 0 0 0 0 0 0 0 0 0 0 0 0 0 0 0.25 0"/><feBlend in2="BackgroundImageFix" result="effect1_dropShadow"/><feBlend in="SourceGraphic" in2="effect1_dropShadow" result="shape"/></filter></defs></svg>