<svg width="20" height="12" fill="none" xmlns="http://www.w3.org/2000/svg"><path d="M15.016.984c1.375 0 2.546.5 3.515 1.5.969.97 1.453 2.141 1.453 3.516s-.484 2.563-1.453 3.563c-.968.968-2.14 1.453-3.515 1.453h-4.032V9.094h4.032a2.94 2.94 0 0 0 2.156-.89c.625-.626.937-1.36.937-2.204 0-.844-.312-1.563-.937-2.156-.594-.625-1.313-.938-2.156-.938h-4.032V.984h4.032zm-9 6V5.016h7.968v1.968H6.016zM2.78 3.844A2.937 2.937 0 0 0 1.891 6c0 .844.296 1.578.89 2.203.625.594 1.36.89 2.203.89h4.032v1.923H4.984c-1.375 0-2.546-.485-3.515-1.454C.5 8.563.016 7.376.016 6S.5 3.453 1.469 2.484c.968-1 2.14-1.5 3.515-1.5h4.032v1.922H4.984c-.843 0-1.578.313-2.203.938z" fill="#CBCFD4"/></svg>