<svg width="68" height="88" fill="none" xmlns="http://www.w3.org/2000/svg"><g filter="url(#a)"><path d="M28.063 29.938C29.729 31.5 31.707 32.28 34 32.28c2.292 0 4.219-.781 5.781-2.343 1.667-1.667 2.5-3.646 2.5-5.938s-.833-4.219-2.5-5.781c-1.562-1.667-3.49-2.5-5.781-2.5-2.292 0-4.27.833-5.938 2.5C26.5 19.78 25.72 21.709 25.72 24c0 2.292.781 4.27 2.343 5.938zM17.438 7.593C22.02 3.01 27.541.719 34 .719c6.458 0 11.927 2.291 16.406 6.875 4.584 4.479 6.875 9.948 6.875 16.406 0 3.23-.833 6.927-2.5 11.094A64.514 64.514 0 0 1 49 46.812a221.526 221.526 0 0 1-6.875 10.313c-2.188 3.125-4.063 5.625-5.625 7.5L34 67.281a134.605 134.605 0 0 0-2.5-2.812c-1.042-1.25-2.917-3.646-5.625-7.188-2.708-3.646-5.104-7.135-7.188-10.468-1.979-3.438-3.802-7.292-5.468-11.563-1.667-4.27-2.5-8.02-2.5-11.25 0-6.458 2.24-11.927 6.719-16.406z" fill="#F27A54"/></g><defs><filter id="a" x=".719" y=".719" width="66.563" height="86.563" filterUnits="userSpaceOnUse" color-interpolation-filters="sRGB"><feFlood flood-opacity="0" result="BackgroundImageFix"/><feColorMatrix in="SourceAlpha" values="0 0 0 0 0 0 0 0 0 0 0 0 0 0 0 0 0 0 127 0" result="hardAlpha"/><feOffset dy="10"/><feGaussianBlur stdDeviation="5"/><feColorMatrix values="0 0 0 0 0 0 0 0 0 0 0 0 0 0 0 0 0 0 0.25 0"/><feBlend in2="BackgroundImageFix" result="effect1_dropShadow"/><feBlend in="SourceGraphic" in2="effect1_dropShadow" result="shape"/></filter></defs></svg>