<svg width="12" height="12" fill="none" xmlns="http://www.w3.org/2000/svg"><path d="M2.219 6.469a2.893 2.893 0 0 0 2.125.875c.833 0 1.541-.292 2.125-.875a2.893 2.893 0 0 0 .875-2.125c0-.834-.292-1.542-.875-2.125a2.893 2.893 0 0 0-2.125-.875c-.834 0-1.542.291-2.125.875a2.893 2.893 0 0 0-.875 2.125c0 .833.291 1.541.875 2.125zm6.125.875 3.312 3.312-1 1-3.312-3.312v-.531l-.188-.188c-.791.688-1.729 1.031-2.812 1.031-1.209 0-2.24-.416-3.094-1.25C.417 6.573 0 5.552 0 4.344c0-1.209.417-2.23 1.25-3.063C2.104.427 3.135 0 4.344 0c1.208 0 2.229.427 3.062 1.281.834.834 1.25 1.854 1.25 3.063 0 1.083-.344 2.02-1.031 2.812l.188.188h.53z" fill="#fff"/></svg>