<svg width="81" height="82" fill="none" xmlns="http://www.w3.org/2000/svg"><path d="M0 48.12c0 3.96 1.38 7.38 4.11 10.2 2.73 2.82 6.12 4.35 10.14 4.53.36 0 .54-.18.54-.51v-3.99c0-.36-.18-.54-.54-.54-2.58-.12-4.74-1.14-6.51-3-1.77-1.86-2.64-4.11-2.64-6.72 0-2.52.84-4.74 2.52-6.57 1.68-1.86 3.78-2.88 6.3-3.09l1.59-.24c.33 0 .48-.15.48-.42l.24-1.65c.36-3.27 1.77-6 4.14-8.16 2.37-2.16 5.19-3.21 8.49-3.21s6.15 1.08 8.58 3.24c2.46 2.16 3.84 4.86 4.14 8.07l.21 1.74c.06.33.3.51.66.51h4.8c2.67 0 4.95.96 6.87 2.88S57 45.42 57 48.12c0 2.61-.87 4.83-2.64 6.72-1.77 1.89-3.93 2.85-6.51 3-.39 0-.6.18-.6.54v3.99c0 .33.21.51.6.51 3.99-.12 7.35-1.62 10.11-4.47 2.73-2.85 4.11-6.27 4.11-10.26 0-2.04-.39-4.02-1.14-6.03 2.34-2.88 3.48-6.24 3.48-10.05 0-2.13-.42-4.14-1.23-6.09-.81-1.95-1.95-3.6-3.36-5.01-1.41-1.41-3.09-2.52-5.01-3.36-1.92-.84-3.99-1.26-6.12-1.26-4.62 0-8.49 1.74-11.58 5.22-2.67-1.32-5.43-1.98-8.22-1.98-4.23 0-7.98 1.32-11.22 3.93-3.24 2.61-5.31 6-6.24 10.14-3.36.78-6.12 2.49-8.25 5.19S0 44.64 0 48.12zm16.05 21.09c0 .51.15 1.02.48 1.53.33.51.81.84 1.41 1.05.69.21 1.35.18 1.92-.12.6-.27.99-.84 1.2-1.68l.42-1.83c.15-.69.06-1.32-.3-1.89-.36-.6-.87-.99-1.56-1.2-.69-.21-1.32-.12-1.92.24-.6.36-.96.87-1.14 1.56l-.42 1.77c-.06.18-.09.36-.09.57zm2.31-8.7c0 .66.24 1.23.72 1.71.48.54 1.05.78 1.68.78.72 0 1.32-.24 1.8-.72.51-.48.75-1.05.75-1.77 0-.69-.24-1.29-.75-1.77s-1.11-.72-1.8-.72-1.26.24-1.74.69c-.48.45-.66 1.11-.66 1.8zm1.83-6.81c-.03.48.09.93.39 1.35.3.45.78.75 1.44.96.63.18 1.23.12 1.86-.21.63-.33 1.05-.84 1.26-1.53l.81-2.7c.21-.72.15-1.38-.21-1.95-.36-.57-.9-.96-1.62-1.17-.66-.21-1.29-.15-1.89.21-.6.33-1.02.84-1.23 1.5l-.72 2.76c-.06.48-.09.75-.09.78zm3.45 24.87c0 .51.15.99.48 1.47.33.48.81.81 1.47.99.27.06.51.09.72.09 1.29 0 2.1-.6 2.4-1.83l.39-1.77c.18-.78.09-1.44-.24-2.04-.33-.6-.87-.96-1.56-1.11-.63-.21-1.26-.15-1.89.21-.63.36-1.02.87-1.23 1.53l-.42 1.8c-.09.33-.12.57-.12.66zm1.68-67.32c0 .72.24 1.32.72 1.8l1.98 1.92c.42.48.96.72 1.62.78.66.06 1.29-.21 1.86-.78.48-.48.72-1.08.72-1.77 0-.72-.24-1.32-.72-1.8l-1.89-1.95c-.45-.48-1.05-.72-1.74-.78-.69 0-1.29.24-1.8.75-.48.51-.75 1.11-.75 1.83zm.69 58.62c0 .69.24 1.26.72 1.74s1.08.72 1.74.72c.72 0 1.29-.24 1.77-.69.48-.48.69-1.05.69-1.77 0-.69-.24-1.26-.69-1.74-.48-.48-1.05-.69-1.77-.69s-1.29.24-1.77.69c-.48.45-.69 1.05-.69 1.74zm1.86-6.81c-.03.45.09.93.42 1.41.3.48.75.78 1.35.9.69.18 1.32.12 1.92-.18.6-.3.99-.87 1.23-1.68l.78-2.7c.21-.66.15-1.29-.21-1.89-.36-.6-.87-.99-1.59-1.2-.66-.21-1.29-.12-1.92.24-.63.36-1.02.9-1.23 1.59l-.66 2.7c-.06.24-.09.51-.09.81zm8.28 6.45c0 .51.15.99.45 1.44.3.45.75.78 1.38.96.09 0 .24.03.42.06s.33.06.42.06c1.23 0 1.98-.66 2.28-1.98l.42-1.8c.21-.63.15-1.26-.21-1.89-.36-.63-.87-1.02-1.53-1.23-.75-.18-1.44-.12-2.04.24-.6.36-1.02.87-1.23 1.59l-.27 1.77c0 .03 0 .15-.03.33-.03.21-.06.33-.06.45zm2.22-8.88c0 .69.24 1.26.72 1.71.45.48 1.02.72 1.74.72s1.29-.24 1.77-.69c.48-.48.69-1.05.69-1.74 0-.72-.24-1.29-.69-1.77-.48-.48-1.05-.69-1.77-.69s-1.29.24-1.77.69c-.48.45-.69 1.05-.69 1.77zm1.83-6.93c0 .51.15.99.48 1.44.33.45.81.78 1.47.96.06 0 .18.03.36.06s.33.06.42.06c.33 0 .69-.09 1.11-.27.63-.33 1.02-.84 1.2-1.56l.72-2.7c.18-.69.12-1.32-.21-1.89-.33-.57-.84-.99-1.5-1.2-.69-.21-1.35-.15-1.92.18-.6.33-.99.81-1.2 1.53l-.84 2.73c0 .06 0 .15-.03.33-.03.09-.06.21-.06.33zm1.05-29.16c1.98-1.98 4.44-2.97 7.41-2.97 2.97 0 5.49 1.02 7.56 3.06 2.07 2.04 3.12 4.5 3.12 7.44 0 1.98-.54 3.87-1.59 5.64-2.94-2.94-6.45-4.41-10.5-4.41h-.93c-.84-3.3-2.55-6.21-5.07-8.76zM46.2 8.76c0 .69.24 1.26.69 1.74.45.45 1.05.69 1.77.69s1.35-.24 1.86-.69c.51-.45.75-1.05.75-1.74V2.55c0-.69-.27-1.29-.78-1.8S49.35 0 48.66 0c-.69 0-1.29.24-1.74.75-.48.51-.69 1.11-.69 1.8v6.21h-.03zm16.56 6.78c0 .75.24 1.35.69 1.8 1.08 1.08 2.28 1.08 3.63 0l4.29-4.29c.51-.51.75-1.14.75-1.89 0-.72-.24-1.32-.75-1.8-.51-.51-1.11-.75-1.8-.75s-1.29.24-1.83.72l-4.29 4.44c-.45.45-.69 1.02-.69 1.77zm2.34 35.55c0 .69.27 1.29.81 1.77l1.83 1.89c.6.48 1.2.72 1.83.72.6 0 1.2-.24 1.8-.72.51-.48.75-1.05.75-1.77 0-.69-.24-1.29-.75-1.86l-1.95-1.83c-.45-.51-1.02-.75-1.71-.75s-1.29.24-1.8.75c-.54.51-.81 1.11-.81 1.8zm4.44-19.02c0 .72.27 1.29.78 1.77.54.54 1.17.81 1.86.81h6.09c.69 0 1.29-.24 1.77-.75s.72-1.11.72-1.83-.24-1.32-.72-1.8c-.48-.51-1.05-.75-1.77-.75h-6.09c-.72 0-1.32.24-1.86.75s-.78 1.11-.78 1.8z" fill="#fff"/></svg>