<svg width="81" height="82" viewBox="0 0 81 82" fill="none" xmlns="http://www.w3.org/2000/svg">
<path d="M5.72205e-08 48.12C5.72205e-08 52.08 1.38 55.5 4.11 58.32C6.84 61.14 10.23 62.67 14.25 62.85C14.61 62.85 14.79 62.67 14.79 62.34V58.35C14.79 57.99 14.61 57.81 14.25 57.81C11.67 57.69 9.51 56.67 7.74 54.81C5.97 52.95 5.1 50.7 5.1 48.09C5.1 45.57 5.94 43.35 7.62 41.52C9.3 39.66 11.4 38.64 13.92 38.43L15.51 38.19C15.84 38.19 15.99 38.04 15.99 37.77L16.23 36.12C16.59 32.85 18 30.12 20.37 27.96C22.74 25.8 25.56 24.75 28.86 24.75C32.16 24.75 35.01 25.83 37.44 27.99C39.9 30.15 41.28 32.85 41.58 36.06L41.79 37.8C41.85 38.13 42.09 38.31 42.45 38.31H47.25C49.92 38.31 52.2 39.27 54.12 41.19C56.04 43.11 57 45.42 57 48.12C57 50.73 56.13 52.95 54.36 54.84C52.59 56.73 50.43 57.69 47.85 57.84C47.46 57.84 47.25 58.02 47.25 58.38V62.37C47.25 62.7 47.46 62.88 47.85 62.88C51.84 62.76 55.2 61.26 57.96 58.41C60.69 55.56 62.07 52.14 62.07 48.15C62.07 46.11 61.68 44.13 60.93 42.12C63.27 39.24 64.41 35.88 64.41 32.07C64.41 29.94 63.99 27.93 63.18 25.98C62.37 24.03 61.23 22.38 59.82 20.97C58.41 19.56 56.73 18.45 54.81 17.61C52.89 16.77 50.82 16.35 48.69 16.35C44.07 16.35 40.2 18.09 37.11 21.57C34.44 20.25 31.68 19.59 28.89 19.59C24.66 19.59 20.91 20.91 17.67 23.52C14.43 26.13 12.36 29.52 11.43 33.66C8.07 34.44 5.31 36.15 3.18 38.85C1.05 41.55 5.72205e-08 44.64 5.72205e-08 48.12ZM16.05 69.21C16.05 69.72 16.2 70.23 16.53 70.74C16.86 71.25 17.34 71.58 17.94 71.79C18.63 72 19.29 71.97 19.86 71.67C20.46 71.4 20.85 70.83 21.06 69.99L21.48 68.16C21.63 67.47 21.54 66.84 21.18 66.27C20.82 65.67 20.31 65.28 19.62 65.07C18.93 64.86 18.3 64.95 17.7 65.31C17.1 65.67 16.74 66.18 16.56 66.87L16.14 68.64C16.08 68.82 16.05 69 16.05 69.21ZM18.36 60.51C18.36 61.17 18.6 61.74 19.08 62.22C19.56 62.76 20.13 63 20.76 63C21.48 63 22.08 62.76 22.56 62.28C23.07 61.8 23.31 61.23 23.31 60.51C23.31 59.82 23.07 59.22 22.56 58.74C22.05 58.26 21.45 58.02 20.76 58.02C20.07 58.02 19.5 58.26 19.02 58.71C18.54 59.16 18.36 59.82 18.36 60.51ZM20.19 53.7C20.16 54.18 20.28 54.63 20.58 55.05C20.88 55.5 21.36 55.8 22.02 56.01C22.65 56.19 23.25 56.13 23.88 55.8C24.51 55.47 24.93 54.96 25.14 54.27L25.95 51.57C26.16 50.85 26.1 50.19 25.74 49.62C25.38 49.05 24.84 48.66 24.12 48.45C23.46 48.24 22.83 48.3 22.23 48.66C21.63 48.99 21.21 49.5 21 50.16L20.28 52.92C20.22 53.4 20.19 53.67 20.19 53.7ZM23.64 78.57C23.64 79.08 23.79 79.56 24.12 80.04C24.45 80.52 24.93 80.85 25.59 81.03C25.86 81.09 26.1 81.12 26.31 81.12C27.6 81.12 28.41 80.52 28.71 79.29L29.1 77.52C29.28 76.74 29.19 76.08 28.86 75.48C28.53 74.88 27.99 74.52 27.3 74.37C26.67 74.16 26.04 74.22 25.41 74.58C24.78 74.94 24.39 75.45 24.18 76.11L23.76 77.91C23.67 78.24 23.64 78.48 23.64 78.57ZM25.32 11.25C25.32 11.97 25.56 12.57 26.04 13.05L28.02 14.97C28.44 15.45 28.98 15.69 29.64 15.75C30.3 15.81 30.93 15.54 31.5 14.97C31.98 14.49 32.22 13.89 32.22 13.2C32.22 12.48 31.98 11.88 31.5 11.4L29.61 9.45C29.16 8.97 28.56 8.73 27.87 8.67C27.18 8.67 26.58 8.91 26.07 9.42C25.59 9.93 25.32 10.53 25.32 11.25ZM26.01 69.87C26.01 70.56 26.25 71.13 26.73 71.61C27.21 72.09 27.81 72.33 28.47 72.33C29.19 72.33 29.76 72.09 30.24 71.64C30.72 71.16 30.93 70.59 30.93 69.87C30.93 69.18 30.69 68.61 30.24 68.13C29.76 67.65 29.19 67.44 28.47 67.44C27.75 67.44 27.18 67.68 26.7 68.13C26.22 68.58 26.01 69.18 26.01 69.87ZM27.87 63.06C27.84 63.51 27.96 63.99 28.29 64.47C28.59 64.95 29.04 65.25 29.64 65.37C30.33 65.55 30.96 65.49 31.56 65.19C32.16 64.89 32.55 64.32 32.79 63.51L33.57 60.81C33.78 60.15 33.72 59.52 33.36 58.92C33 58.32 32.49 57.93 31.77 57.72C31.11 57.51 30.48 57.6 29.85 57.96C29.22 58.32 28.83 58.86 28.62 59.55L27.96 62.25C27.9 62.49 27.87 62.76 27.87 63.06ZM36.15 69.51C36.15 70.02 36.3 70.5 36.6 70.95C36.9 71.4 37.35 71.73 37.98 71.91C38.07 71.91 38.22 71.94 38.4 71.97C38.58 72 38.73 72.03 38.82 72.03C40.05 72.03 40.8 71.37 41.1 70.05L41.52 68.25C41.73 67.62 41.67 66.99 41.31 66.36C40.95 65.73 40.44 65.34 39.78 65.13C39.03 64.95 38.34 65.01 37.74 65.37C37.14 65.73 36.72 66.24 36.51 66.96L36.24 68.73C36.24 68.76 36.24 68.88 36.21 69.06C36.18 69.27 36.15 69.39 36.15 69.51ZM38.37 60.63C38.37 61.32 38.61 61.89 39.09 62.34C39.54 62.82 40.11 63.06 40.83 63.06C41.55 63.06 42.12 62.82 42.6 62.37C43.08 61.89 43.29 61.32 43.29 60.63C43.29 59.91 43.05 59.34 42.6 58.86C42.12 58.38 41.55 58.17 40.83 58.17C40.11 58.17 39.54 58.41 39.06 58.86C38.58 59.31 38.37 59.91 38.37 60.63ZM40.2 53.7C40.2 54.21 40.35 54.69 40.68 55.14C41.01 55.59 41.49 55.92 42.15 56.1C42.21 56.1 42.33 56.13 42.51 56.16C42.69 56.19 42.84 56.22 42.93 56.22C43.26 56.22 43.62 56.13 44.04 55.95C44.67 55.62 45.06 55.11 45.24 54.39L45.96 51.69C46.14 51 46.08 50.37 45.75 49.8C45.42 49.23 44.91 48.81 44.25 48.6C43.56 48.39 42.9 48.45 42.33 48.78C41.73 49.11 41.34 49.59 41.13 50.31L40.29 53.04C40.29 53.1 40.29 53.19 40.26 53.37C40.23 53.46 40.2 53.58 40.2 53.7ZM41.25 24.54C43.23 22.56 45.69 21.57 48.66 21.57C51.63 21.57 54.15 22.59 56.22 24.63C58.29 26.67 59.34 29.13 59.34 32.07C59.34 34.05 58.8 35.94 57.75 37.71C54.81 34.77 51.3 33.3 47.25 33.3H46.32C45.48 30 43.77 27.09 41.25 24.54ZM46.2 8.76C46.2 9.45 46.44 10.02 46.89 10.5C47.34 10.95 47.94 11.19 48.66 11.19C49.38 11.19 50.01 10.95 50.52 10.5C51.03 10.05 51.27 9.45 51.27 8.76V2.55C51.27 1.86 51 1.26 50.49 0.75C49.98 0.24 49.35 7.86781e-08 48.66 7.86781e-08C47.97 7.86781e-08 47.37 0.24 46.92 0.75C46.44 1.26 46.23 1.86 46.23 2.55V8.76H46.2ZM62.76 15.54C62.76 16.29 63 16.89 63.45 17.34C64.53 18.42 65.73 18.42 67.08 17.34L71.37 13.05C71.88 12.54 72.12 11.91 72.12 11.16C72.12 10.44 71.88 9.84 71.37 9.36C70.86 8.85 70.26 8.61 69.57 8.61C68.88 8.61 68.28 8.85 67.74 9.33L63.45 13.77C63 14.22 62.76 14.79 62.76 15.54ZM65.1 51.09C65.1 51.78 65.37 52.38 65.91 52.86L67.74 54.75C68.34 55.23 68.94 55.47 69.57 55.47C70.17 55.47 70.77 55.23 71.37 54.75C71.88 54.27 72.12 53.7 72.12 52.98C72.12 52.29 71.88 51.69 71.37 51.12L69.42 49.29C68.97 48.78 68.4 48.54 67.71 48.54C67.02 48.54 66.42 48.78 65.91 49.29C65.37 49.8 65.1 50.4 65.1 51.09ZM69.54 32.07C69.54 32.79 69.81 33.36 70.32 33.84C70.86 34.38 71.49 34.65 72.18 34.65H78.27C78.96 34.65 79.56 34.41 80.04 33.9C80.52 33.39 80.76 32.79 80.76 32.07C80.76 31.35 80.52 30.75 80.04 30.27C79.56 29.76 78.99 29.52 78.27 29.52H72.18C71.46 29.52 70.86 29.76 70.32 30.27C69.78 30.78 69.54 31.38 69.54 32.07Z" fill="white"/>
</svg>
