<svg width="68" height="88" viewBox="0 0 68 88" fill="none" xmlns="http://www.w3.org/2000/svg">
<g filter="url(#filter0_d)">
<path d="M28.0625 29.9375C29.7292 31.5 31.7083 32.2812 34 32.2812C36.2917 32.2812 38.2188 31.5 39.7812 29.9375C41.4479 28.2708 42.2812 26.2917 42.2812 24C42.2812 21.7083 41.4479 19.7812 39.7812 18.2188C38.2188 16.5521 36.2917 15.7188 34 15.7188C31.7083 15.7188 29.7292 16.5521 28.0625 18.2188C26.5 19.7812 25.7188 21.7083 25.7188 24C25.7188 26.2917 26.5 28.2708 28.0625 29.9375ZM17.4375 7.59375C22.0208 3.01042 27.5417 0.71875 34 0.71875C40.4583 0.71875 45.9271 3.01042 50.4062 7.59375C54.9896 12.0729 57.2812 17.5417 57.2812 24C57.2812 27.2292 56.4479 30.9271 54.7812 35.0938C53.2188 39.2604 51.2917 43.1667 49 46.8125C46.7083 50.4583 44.4167 53.8958 42.125 57.125C39.9375 60.25 38.0625 62.75 36.5 64.625L34 67.2812C33.375 66.5521 32.5417 65.6146 31.5 64.4688C30.4583 63.2188 28.5833 60.8229 25.875 57.2812C23.1667 53.6354 20.7708 50.1458 18.6875 46.8125C16.7083 43.375 14.8854 39.5208 13.2188 35.25C11.5521 30.9792 10.7188 27.2292 10.7188 24C10.7188 17.5417 12.9583 12.0729 17.4375 7.59375Z" fill="#F27A54"/>
</g>
<defs>
<filter id="filter0_d" x="0.71875" y="0.71875" width="66.5625" height="86.5625" filterUnits="userSpaceOnUse" color-interpolation-filters="sRGB">
<feFlood flood-opacity="0" result="BackgroundImageFix"/>
<feColorMatrix in="SourceAlpha" type="matrix" values="0 0 0 0 0 0 0 0 0 0 0 0 0 0 0 0 0 0 127 0" result="hardAlpha"/>
<feOffset dy="10"/>
<feGaussianBlur stdDeviation="5"/>
<feColorMatrix type="matrix" values="0 0 0 0 0 0 0 0 0 0 0 0 0 0 0 0 0 0 0.25 0"/>
<feBlend mode="normal" in2="BackgroundImageFix" result="effect1_dropShadow"/>
<feBlend mode="normal" in="SourceGraphic" in2="effect1_dropShadow" result="shape"/>
</filter>
</defs>
</svg>
